<svg width="50" height="60" viewBox="0 0 50 60" fill="none" xmlns="http://www.w3.org/2000/svg">
<g clip-path="url(#clip0)">
<path d="M31.4541 6.21494H18.3076V30.4197H31.4541V6.21494Z" fill="#FF5F00"/>
<path d="M19.1423 18.3173C19.1423 13.3994 21.396 9.03739 24.86 6.21493C22.3141 4.16223 19.1006 2.92206 15.5949 2.92206C7.28964 2.92206 0.570343 9.80715 0.570343 18.3173C0.570343 26.8274 7.28964 33.7125 15.5949 33.7125C19.1006 33.7125 22.3141 32.4724 24.86 30.4197C21.396 27.64 19.1423 23.2352 19.1423 18.3173Z" fill="#EB001B"/>
<path d="M49.1913 18.3173C49.1913 26.8275 42.472 33.7126 34.1668 33.7126C30.6611 33.7126 27.4475 32.4724 24.9017 30.4197C28.4074 27.5972 30.6194 23.2352 30.6194 18.3173C30.6194 13.3994 28.3657 9.03741 24.9017 6.21494C27.4475 4.16225 30.6611 2.92207 34.1668 2.92207C42.472 2.92207 49.1913 9.84993 49.1913 18.3173Z" fill="#F79E1B"/>
</g>
<path fill-rule="evenodd" clip-rule="evenodd" d="M15.1299 59.4788L19.8121 41.1171H23.9896L19.3068 59.4788H15.1299ZM13.262 41.1228L9.50414 48.9063C8.54803 50.9446 7.98815 51.9749 7.71841 53.2632H7.66146C7.728 51.6298 7.53678 49.6242 7.51879 48.492L7.10398 41.1235H0.0719329L0 41.6169C1.80672 41.6169 2.87792 42.6963 3.17284 44.9051L4.54376 59.4795H8.87173L17.6236 41.1228H13.262V41.1228ZM45.75 59.4788L45.6355 56.7475L40.4191 56.7425L39.3515 59.4781H34.8156L43.0393 41.1513H48.6075L50 59.4781H45.75V59.4788V59.4788ZM45.271 48.6475C45.2249 47.2907 45.1859 45.4491 45.2638 44.334H45.2021C44.9479 45.2459 43.8557 47.983 43.3756 49.3298L41.8206 53.3545H45.4832L45.271 48.6475V48.6475ZM28.3758 60C25.4259 60 23.4687 58.8885 22.0708 57.896L24.0604 54.282C25.3156 55.1162 26.3005 56.0794 28.5676 56.0794C29.2953 56.0794 29.9978 55.8541 30.3971 55.0335C30.9779 53.8386 30.2634 53.1955 28.6311 52.0968L27.8255 51.4737C25.4061 49.508 24.3595 47.64 25.4984 44.3804C26.2274 42.2957 28.1498 40.7143 31.3196 40.7143C33.5064 40.7143 35.5565 41.8394 36.7511 42.9395L34.4637 46.1307C33.2972 45.0092 32.3315 44.4431 31.2255 44.4431C30.3437 44.4431 29.6741 44.8466 29.4428 45.3921C29.0076 46.4173 29.5836 47.1167 30.8544 48.0557L31.8129 48.7808C34.7502 50.9838 35.4504 53.2953 34.7136 55.4549C33.4476 59.1708 30.9689 60 28.3758 60V60Z" fill="#3577B3"/>
<defs>
<clipPath id="clip0">
<rect width="48.6692" height="38.7662" fill="white" transform="translate(0.570343)"/>
</clipPath>
</defs>
</svg>
