<svg width="18" height="18" xmlns="http://www.w3.org/2000/svg" xmlns:xlink="http://www.w3.org/1999/xlink" xmlns:svgjs="http://svgjs.com/svgjs" opacity=".6"><svg xmlns="http://www.w3.org/2000/svg" width="18" height="18"><path paint-order="stroke fill markers" fill-rule="evenodd" d="M9 0C4.03 0 0 4.032 0 9s4.031 9 9 9c4.968 0 9-4.032 9-9s-4.032-9-9-9zm0 16.2c-3.969 0-7.2-3.231-7.2-7.2 0-3.97 3.23-7.2 7.2-7.2 3.969 0 7.2 3.23 7.2 7.2 0 3.969-3.231 7.2-7.2 7.2zm-.9-2.7h1.8V8.1H8.1v5.4zm0-7.2h1.8V4.5H8.1v1.8z"/></svg></svg>
